<?xml version="1.0" encoding="utf-8"?>
<!-- Generator: Adobe Illustrator 28.2.0, SVG Export Plug-In . SVG Version: 6.00 Build 0)  -->
<svg version="1.1" xmlns="http://www.w3.org/2000/svg" xmlns:xlink="http://www.w3.org/1999/xlink" x="0px" y="0px"
	 viewBox="0 0 1000 1000" style="enable-background:new 0 0 1000 1000;" xml:space="preserve">
<style type="text/css">
	.st0{stroke:#000000;stroke-miterlimit:10;}
	.st1{fill:#FFFFFF;stroke:#000000;stroke-miterlimit:10;}
	.st2{fill:#FFFFFF;}
</style>
<g id="Layer_1">
	<rect x="-2.83" y="1.26" class="st0" width="1002.89" height="998.81"/>
</g>
<g id="Layer_2">
	<path class="st1" d="M227.98,338.28v-87.83h122.55L501.41,500L342.36,722.28H240.23l-12.26-106.21c0,0,61.28,145.74,181.79-116.06
		C409.77,500,328.06,248.4,227.98,338.28z"/>
	<path class="st1" d="M824.4,362.79l8.17-112.34H614.02L500,434.28L542.53,500l-41.12,85.43l128.95,136.85
		c0,0,46.98,55.15-55.15-185.87l153.19-2.04l-2.04-59.23H575.21C575.21,475.13,650.06,207.55,824.4,362.79z"/>
	<path class="st2" d="M832.57,727.71L816.23,626.8c0,0-153.19,170.29-241.02-90.4l55.15,191.31H832.57z"/>
</g>
</svg>
